<svg width="167" height="82" viewBox="0 0 167 82" fill="none" xmlns="http://www.w3.org/2000/svg">
<path d="M40.8935 27.7415V16.3636H45.5213V36H41.0341V32.5099H40.8295C40.3864 33.6094 39.6577 34.5085 38.6435 35.2074C37.6378 35.9062 36.3977 36.2557 34.9233 36.2557C33.6364 36.2557 32.4986 35.9702 31.5099 35.3991C30.5298 34.8196 29.7628 33.9801 29.2088 32.8807C28.6548 31.7727 28.3778 30.4347 28.3778 28.8665V16.3636H33.0057V28.1506C33.0057 29.3949 33.3466 30.3835 34.0284 31.1165C34.7102 31.8494 35.6051 32.2159 36.7131 32.2159C37.3949 32.2159 38.0554 32.0497 38.6946 31.7173C39.3338 31.3849 39.858 30.8906 40.267 30.2344C40.6847 29.5696 40.8935 28.7386 40.8935 27.7415ZM55.9308 36.3963C54.6864 36.3963 53.5657 36.1747 52.5685 35.7315C51.5799 35.2798 50.7958 34.6151 50.2163 33.7372C49.6452 32.8594 49.3597 31.777 49.3597 30.4901C49.3597 29.3821 49.5643 28.4659 49.9734 27.7415C50.3825 27.017 50.9407 26.4375 51.6481 26.0028C52.3555 25.5682 53.1523 25.2401 54.0387 25.0185C54.9336 24.7884 55.8583 24.6222 56.8129 24.5199C57.9634 24.4006 58.8967 24.294 59.6126 24.2003C60.3285 24.098 60.8484 23.9446 61.1722 23.7401C61.5046 23.527 61.6708 23.1989 61.6708 22.7557V22.679C61.6708 21.7159 61.3853 20.9702 60.8143 20.4418C60.2433 19.9134 59.4208 19.6491 58.3469 19.6491C57.2134 19.6491 56.3143 19.8963 55.6495 20.3906C54.9933 20.8849 54.5501 21.4687 54.32 22.142L49.9989 21.5284C50.3398 20.3352 50.9023 19.3381 51.6864 18.5369C52.4705 17.7273 53.4293 17.1222 54.5629 16.7216C55.6964 16.3125 56.9492 16.108 58.3214 16.108C59.2674 16.108 60.2092 16.2188 61.1467 16.4403C62.0842 16.6619 62.9407 17.0284 63.7163 17.5398C64.4918 18.0426 65.114 18.7287 65.5827 19.598C66.06 20.4673 66.2987 21.554 66.2987 22.858V36H61.8498V33.3026H61.6964C61.4151 33.848 61.0188 34.3594 60.5075 34.8366C60.0046 35.3054 59.3697 35.6847 58.6026 35.9744C57.8441 36.2557 56.9535 36.3963 55.9308 36.3963ZM57.1325 32.9957C58.0614 32.9957 58.8668 32.8125 59.5487 32.446C60.2305 32.071 60.7546 31.5767 61.1211 30.9631C61.4961 30.3494 61.6836 29.6804 61.6836 28.956V26.642C61.5387 26.7614 61.2915 26.8722 60.9421 26.9744C60.6012 27.0767 60.2177 27.1662 59.7915 27.2429C59.3654 27.3196 58.9435 27.3878 58.5259 27.4474C58.1083 27.5071 57.7461 27.5582 57.4393 27.6009C56.7489 27.6946 56.131 27.848 55.5856 28.0611C55.0401 28.2741 54.6097 28.5724 54.2944 28.956C53.979 29.331 53.8214 29.8168 53.8214 30.4134C53.8214 31.2656 54.1325 31.9091 54.7546 32.3438C55.3768 32.7784 56.1694 32.9957 57.1325 32.9957ZM75.5799 24.4943V36H70.9521V16.3636H75.3754V19.7003H75.6055C76.0572 18.6009 76.7773 17.7273 77.766 17.0795C78.7631 16.4318 79.9947 16.108 81.4606 16.108C82.8157 16.108 83.9961 16.3977 85.0018 16.9773C86.016 17.5568 86.8001 18.3963 87.354 19.4957C87.9165 20.5952 88.1935 21.929 88.185 23.4972V36H83.5572V24.2131C83.5572 22.9006 83.2163 21.8736 82.5344 21.1321C81.8612 20.3906 80.9279 20.0199 79.7347 20.0199C78.9251 20.0199 78.2049 20.1989 77.5742 20.5568C76.9521 20.9062 76.462 21.4134 76.104 22.0781C75.7546 22.7429 75.5799 23.5483 75.5799 24.4943Z" fill="white"/>
<path d="M32.0057 61.4943V73H27.3778V46.8182H31.9034V56.7003H32.1335C32.5938 55.5923 33.3054 54.7187 34.2685 54.0795C35.2401 53.4318 36.4759 53.108 37.9759 53.108C39.3395 53.108 40.5284 53.3935 41.5426 53.9645C42.5568 54.5355 43.3409 55.3707 43.8949 56.4702C44.4574 57.5696 44.7386 58.9119 44.7386 60.4972V73H40.1108V61.2131C40.1108 59.892 39.7699 58.8651 39.0881 58.1321C38.4148 57.3906 37.4688 57.0199 36.25 57.0199C35.4318 57.0199 34.6989 57.1989 34.0511 57.5568C33.4119 57.9062 32.9091 58.4134 32.5426 59.0781C32.1847 59.7429 32.0057 60.5483 32.0057 61.4943ZM49.456 73V53.3636H53.9432V56.6364H54.1477C54.5057 55.5028 55.1193 54.6293 55.9886 54.0156C56.8665 53.3935 57.8679 53.0824 58.9929 53.0824C59.2486 53.0824 59.5341 53.0952 59.8494 53.1207C60.1733 53.1378 60.4418 53.1676 60.6548 53.2102V57.4673C60.4588 57.3991 60.1477 57.3395 59.7216 57.2884C59.304 57.2287 58.8991 57.1989 58.5071 57.1989C57.6634 57.1989 56.9048 57.3821 56.2315 57.7486C55.5668 58.1065 55.0426 58.6051 54.6591 59.2443C54.2756 59.8835 54.0838 60.6207 54.0838 61.456V73H49.456ZM63.7294 73V53.3636H68.3572V73H63.7294ZM66.0561 50.5767C65.3232 50.5767 64.6925 50.3338 64.1641 49.848C63.6357 49.3537 63.3714 48.7614 63.3714 48.071C63.3714 47.3722 63.6357 46.7798 64.1641 46.294C64.6925 45.7997 65.3232 45.5526 66.0561 45.5526C66.7976 45.5526 67.4283 45.7997 67.9482 46.294C68.4766 46.7798 68.7408 47.3722 68.7408 48.071C68.7408 48.7614 68.4766 49.3537 67.9482 49.848C67.4283 50.3338 66.7976 50.5767 66.0561 50.5767ZM88.636 58.554L84.4173 59.0142C84.2979 58.5881 84.0891 58.1875 83.7908 57.8125C83.5011 57.4375 83.109 57.1349 82.6147 56.9048C82.1204 56.6747 81.5153 56.5597 80.7994 56.5597C79.8363 56.5597 79.0266 56.7685 78.3704 57.1861C77.7227 57.6037 77.4031 58.1449 77.4116 58.8097C77.4031 59.3807 77.6119 59.8452 78.038 60.2031C78.4727 60.5611 79.1886 60.8551 80.1857 61.0852L83.5352 61.8011C85.3931 62.2017 86.7738 62.8366 87.6772 63.706C88.5891 64.5753 89.0494 65.7131 89.0579 67.1193C89.0494 68.3551 88.6871 69.446 87.9712 70.392C87.2638 71.3295 86.2795 72.0625 85.0181 72.5909C83.7567 73.1193 82.3079 73.3835 80.6715 73.3835C78.2681 73.3835 76.3335 72.8807 74.8675 71.875C73.4016 70.8608 72.5281 69.4503 72.2468 67.6435L76.7596 67.2088C76.9641 68.0952 77.3988 68.7642 78.0636 69.2159C78.7283 69.6676 79.5934 69.8935 80.6587 69.8935C81.7582 69.8935 82.6403 69.6676 83.305 69.2159C83.9783 68.7642 84.315 68.206 84.315 67.5412C84.315 66.9787 84.0977 66.5142 83.663 66.1477C83.2369 65.7812 82.5721 65.5 81.6687 65.304L78.3192 64.6009C76.4357 64.2088 75.0423 63.5483 74.1388 62.6193C73.2354 61.6818 72.788 60.4972 72.7965 59.0653C72.788 57.8551 73.1161 56.8068 73.7809 55.9205C74.4542 55.0256 75.3874 54.3352 76.5806 53.8494C77.7823 53.3551 79.1673 53.108 80.7354 53.108C83.0366 53.108 84.8477 53.598 86.1687 54.5781C87.4982 55.5582 88.3207 56.8835 88.636 58.554ZM102.679 53.3636V56.9432H91.391V53.3636H102.679ZM94.1779 48.6591H98.8058V67.0938C98.8058 67.7159 98.8995 68.1932 99.087 68.5256C99.283 68.8494 99.5387 69.071 99.854 69.1903C100.169 69.3097 100.519 69.3693 100.902 69.3693C101.192 69.3693 101.456 69.348 101.695 69.3054C101.942 69.2628 102.13 69.2244 102.257 69.1903L103.037 72.8082C102.79 72.8935 102.436 72.9872 101.976 73.0895C101.525 73.1918 100.971 73.2514 100.314 73.2685C99.1552 73.3026 98.1112 73.1278 97.1822 72.7443C96.2532 72.3523 95.516 71.7472 94.9705 70.929C94.4336 70.1108 94.1694 69.0881 94.1779 67.8608V48.6591ZM106.55 73V53.3636H111.178V73H106.55ZM108.876 50.5767C108.143 50.5767 107.513 50.3338 106.984 49.848C106.456 49.3537 106.192 48.7614 106.192 48.071C106.192 47.3722 106.456 46.7798 106.984 46.294C107.513 45.7997 108.143 45.5526 108.876 45.5526C109.618 45.5526 110.249 45.7997 110.768 46.294C111.297 46.7798 111.561 47.3722 111.561 48.071C111.561 48.7614 111.297 49.3537 110.768 49.848C110.249 50.3338 109.618 50.5767 108.876 50.5767ZM121.587 73.3963C120.343 73.3963 119.222 73.1747 118.225 72.7315C117.236 72.2798 116.452 71.6151 115.873 70.7372C115.301 69.8594 115.016 68.777 115.016 67.4901C115.016 66.3821 115.221 65.4659 115.63 64.7415C116.039 64.017 116.597 63.4375 117.304 63.0028C118.012 62.5682 118.809 62.2401 119.695 62.0185C120.59 61.7884 121.515 61.6222 122.469 61.5199C123.62 61.4006 124.553 61.294 125.269 61.2003C125.985 61.098 126.505 60.9446 126.828 60.7401C127.161 60.527 127.327 60.1989 127.327 59.7557V59.679C127.327 58.7159 127.042 57.9702 126.471 57.4418C125.9 56.9134 125.077 56.6491 124.003 56.6491C122.87 56.6491 121.971 56.8963 121.306 57.3906C120.65 57.8849 120.206 58.4687 119.976 59.142L115.655 58.5284C115.996 57.3352 116.559 56.3381 117.343 55.5369C118.127 54.7273 119.086 54.1222 120.219 53.7216C121.353 53.3125 122.605 53.108 123.978 53.108C124.924 53.108 125.865 53.2188 126.803 53.4403C127.74 53.6619 128.597 54.0284 129.373 54.5398C130.148 55.0426 130.77 55.7287 131.239 56.598C131.716 57.4673 131.955 58.554 131.955 59.858V73H127.506V70.3026H127.353C127.071 70.848 126.675 71.3594 126.164 71.8366C125.661 72.3054 125.026 72.6847 124.259 72.9744C123.5 73.2557 122.61 73.3963 121.587 73.3963ZM122.789 69.9957C123.718 69.9957 124.523 69.8125 125.205 69.446C125.887 69.071 126.411 68.5767 126.777 67.9631C127.152 67.3494 127.34 66.6804 127.34 65.956V63.642C127.195 63.7614 126.948 63.8722 126.598 63.9744C126.257 64.0767 125.874 64.1662 125.448 64.2429C125.022 64.3196 124.6 64.3878 124.182 64.4474C123.765 64.5071 123.402 64.5582 123.096 64.6009C122.405 64.6946 121.787 64.848 121.242 65.0611C120.696 65.2741 120.266 65.5724 119.951 65.956C119.635 66.331 119.478 66.8168 119.478 67.4134C119.478 68.2656 119.789 68.9091 120.411 69.3438C121.033 69.7784 121.826 69.9957 122.789 69.9957ZM141.236 61.4943V73H136.608V53.3636H141.032V56.7003H141.262C141.713 55.6009 142.434 54.7273 143.422 54.0795C144.419 53.4318 145.651 53.108 147.117 53.108C148.472 53.108 149.652 53.3977 150.658 53.9773C151.672 54.5568 152.456 55.3963 153.01 56.4957C153.573 57.5952 153.85 58.929 153.841 60.4972V73H149.213V61.2131C149.213 59.9006 148.873 58.8736 148.191 58.1321C147.517 57.3906 146.584 57.0199 145.391 57.0199C144.581 57.0199 143.861 57.1989 143.23 57.5568C142.608 57.9062 142.118 58.4134 141.76 59.0781C141.411 59.7429 141.236 60.5483 141.236 61.4943ZM161.397 73.2812C160.621 73.2812 159.956 73.0085 159.402 72.4631C158.848 71.9176 158.576 71.2528 158.584 70.4688C158.576 69.7017 158.848 69.0455 159.402 68.5C159.956 67.9545 160.621 67.6818 161.397 67.6818C162.147 67.6818 162.799 67.9545 163.353 68.5C163.915 69.0455 164.201 69.7017 164.209 70.4688C164.201 70.9886 164.064 71.4616 163.8 71.8878C163.544 72.3139 163.203 72.6548 162.777 72.9105C162.36 73.1577 161.9 73.2812 161.397 73.2812Z" fill="#00FFF3"/>
<path d="M0 0H24V7H7C3.13401 7 0 3.86599 0 0Z" fill="#00FFF3"/>
<path d="M0 29H16V36H7C3.13401 36 0 32.866 0 29Z" fill="#00FFF3"/>
<path d="M7 15V28H0V22C0 18.134 3.13401 15 7 15Z" fill="#00FFF3"/>
<path d="M17 36L17 8H24L24 29C24 32.866 20.866 36 17 36Z" fill="#00FFF3"/>
<path d="M24 66H8V73H17C20.866 73 24 69.866 24 66Z" fill="white"/>
<path d="M24 48H8V41H17C20.866 41 24 44.134 24 48Z" fill="white"/>
<path d="M7 73L7 41C3.13401 41 0 44.134 0 48L0 66C0 69.866 3.13401 73 7 73Z" fill="white"/>
</svg>
